<svg xmlns="http://www.w3.org/2000/svg" viewBox="0 0 454 403"><defs><style>.cls-1{fill:#fff;}.cls-2{fill:#bfc0ca;}.cls-3{fill:#0cbd78;}.cls-4{fill:#ffaeb6;}.cls-5{fill:#0ee290;}.cls-6{fill:#fc6372;}.cls-15,.cls-20,.cls-22,.cls-26,.cls-27,.cls-28,.cls-7,.cls-9{fill:none;}.cls-7{stroke:#ffab00;}.cls-20,.cls-22,.cls-7,.cls-9{stroke-miterlimit:10;}.cls-8{font-size:14px;}.cls-10,.cls-12,.cls-8{fill:#3d3d44;font-family:Lato-Black, Lato;}.cls-9{stroke:#0cbd78;}.cls-10{font-size:13px;}.cls-11{letter-spacing:-0.02em;}.cls-12{font-size:12px;}.cls-13{letter-spacing:-0.02em;}.cls-14{letter-spacing:0em;}.cls-16{fill:#ffb620;}.cls-17{fill:#208eff;}.cls-18{fill:#2bc589;}.cls-19{fill:#007eff;}.cls-20{stroke:#007eff;}.cls-21{isolation:isolate;}.cls-22{stroke:#ddd;}.cls-23{fill:#858690;}.cls-24{fill:#bfc0cb;}.cls-25{fill:#00e9ff;}.cls-26{stroke:#020210;}.cls-26,.cls-27,.cls-28{stroke-linecap:round;stroke-linejoin:round;}.cls-26,.cls-27{stroke-width:1.5px;}.cls-27{stroke:#fff;}.cls-28{stroke:#000;}.cls-29{fill:#f9e765;}</style></defs><title>Asset 10</title><g id="Layer_2" data-name="Layer 2"><g id="Layer_1-2" data-name="Layer 1"><rect class="cls-1" width="454" height="403"/><rect class="cls-2" x="369.87" y="274.08" width="12.18" height="1.85" transform="translate(-84.34 346.39) rotate(-45)"/><rect class="cls-2" x="387.96" y="268.48" width="1.85" height="10.59" transform="translate(-59.92 431.1) rotate(-54.46)"/><rect class="cls-2" x="396.57" y="271.62" width="13.55" height="1.85" transform="translate(-81.27 318.5) rotate(-39.46)"/><path class="cls-3" d="M410.43,263.31a3.69,3.69,0,1,0,3.69,3.69A3.69,3.69,0,0,0,410.43,263.31Zm0,5.54a1.85,1.85,0,1,1,1.85-1.85A1.85,1.85,0,0,1,410.43,268.85Z"/><path class="cls-4" d="M395.66,274.38a3.69,3.69,0,1,0,3.69,3.69A3.69,3.69,0,0,0,395.66,274.38Zm0,5.54a1.85,1.85,0,1,1,1.85-1.85A1.85,1.85,0,0,1,395.66,279.92Z"/><path class="cls-5" d="M382.12,265.15a3.69,3.69,0,1,0,3.69,3.69A3.69,3.69,0,0,0,382.12,265.15Zm0,5.54a1.85,1.85,0,1,1,1.85-1.85A1.85,1.85,0,0,1,382.12,270.69Z"/><path class="cls-6" d="M369.81,277.46a3.69,3.69,0,1,0,3.69,3.69A3.69,3.69,0,0,0,369.81,277.46Zm0,5.54a1.85,1.85,0,1,1,1.85-1.85A1.85,1.85,0,0,1,369.81,283Z"/><rect class="cls-1" x="18.72" y="24.58" width="86.02" height="34.9" rx="4" ry="4"/><rect class="cls-7" x="18.72" y="24.58" width="86.02" height="34.9" rx="4" ry="4"/><text class="cls-8" transform="translate(31.76 48.01)">Service A</text><rect class="cls-1" x="329.72" y="144.58" width="86.02" height="34.9" rx="4" ry="4"/><rect class="cls-9" x="329.72" y="144.58" width="86.02" height="34.9" rx="4" ry="4"/><text class="cls-8" transform="translate(342.76 168.01)">Service B</text><text class="cls-8" transform="translate(330.64 308.01)">Metrics collection</text><text class="cls-10" transform="translate(7.52 323.01)">Service disc<tspan class="cls-11" x="69.56" y="0">ov</tspan><tspan x="83.77" y="0">ery</tspan></text><text class="cls-12" transform="translate(176.03 89.01)"><tspan class="cls-13">L<tspan class="cls-14" x="5.99" y="0">oad balancing</tspan></tspan><tspan x="-3.31" y="34.8">Circuit breaking</tspan><tspan x="-17.79" y="69.6">Retries and deadlines</tspan><tspan x="-4.28" y="104.4">Instrumentation</tspan><tspan x="-3.11" y="139.2">Request routing</tspan></text><rect class="cls-15" x="133.06" y="100.62" width="4.4" height="4.76"/><polygon class="cls-16" points="133.06 105.38 135.44 103 133.06 100.62 135.08 100.62 137.46 103 135.08 105.38 133.06 105.38"/><rect class="cls-15" x="128.3" y="100.62" width="4.4" height="4.76"/><polygon class="cls-16" points="128.3 105.38 130.68 103 128.3 100.62 130.32 100.62 132.7 103 130.32 105.38 128.3 105.38"/><rect class="cls-15" x="123.54" y="100.62" width="4.4" height="4.76"/><polygon class="cls-16" points="123.54 105.38 125.92 103 123.54 100.62 125.56 100.62 127.94 103 125.56 105.38 123.54 105.38"/><rect class="cls-15" x="118.78" y="100.62" width="4.4" height="4.76"/><polygon class="cls-16" points="118.78 105.38 121.16 103 118.78 100.62 120.8 100.62 123.18 103 120.8 105.38 118.78 105.38"/><rect class="cls-15" x="114.02" y="100.62" width="4.4" height="4.76"/><polygon class="cls-16" points="114.02 105.38 116.4 103 114.02 100.62 116.04 100.62 118.42 103 116.04 105.38 114.02 105.38"/><rect class="cls-15" x="109.26" y="100.62" width="4.4" height="4.76"/><polygon class="cls-16" points="109.26 105.38 111.64 103 109.26 100.62 111.28 100.62 113.66 103 111.28 105.38 109.26 105.38"/><rect class="cls-15" x="104.5" y="100.62" width="4.4" height="4.76"/><polygon class="cls-16" points="104.5 105.38 106.88 103 104.5 100.62 106.52 100.62 108.9 103 106.52 105.38 104.5 105.38"/><rect class="cls-15" x="99.74" y="100.62" width="4.4" height="4.76"/><polygon class="cls-16" points="99.73 105.38 102.12 103 99.73 100.62 101.75 100.62 104.14 103 101.75 105.38 99.73 105.38"/><rect class="cls-15" x="94.97" y="100.62" width="4.4" height="4.76"/><polygon class="cls-16" points="94.97 105.38 97.36 103 94.97 100.62 96.99 100.62 99.37 103 96.99 105.38 94.97 105.38"/><rect class="cls-15" x="90.21" y="100.62" width="4.4" height="4.76"/><polygon class="cls-16" points="90.21 105.38 92.59 103 90.21 100.62 92.23 100.62 94.61 103 92.23 105.38 90.21 105.38"/><rect class="cls-15" x="85.45" y="100.62" width="4.4" height="4.76"/><polygon class="cls-16" points="85.45 105.38 87.83 103 85.45 100.62 87.47 100.62 89.85 103 87.47 105.38 85.45 105.38"/><rect class="cls-15" x="80.69" y="100.62" width="4.4" height="4.76"/><polygon class="cls-16" points="80.69 105.38 83.07 103 80.69 100.62 82.71 100.62 85.09 103 82.71 105.38 80.69 105.38"/><rect class="cls-15" x="75.93" y="100.62" width="4.4" height="4.76"/><polygon class="cls-16" points="75.93 105.38 78.31 103 75.93 100.62 77.95 100.62 80.33 103 77.95 105.38 75.93 105.38"/><rect class="cls-15" x="71.17" y="100.62" width="4.4" height="4.76"/><polygon class="cls-16" points="71.17 105.38 73.55 103 71.17 100.62 73.19 100.62 75.57 103 73.19 105.38 71.17 105.38"/><rect class="cls-15" x="66.41" y="100.62" width="4.4" height="4.76"/><polygon class="cls-16" points="66.41 105.38 68.79 103 66.41 100.62 68.43 100.62 70.81 103 68.43 105.38 66.41 105.38"/><rect class="cls-15" x="61.65" y="100.62" width="4.4" height="4.76"/><polygon class="cls-16" points="61.65 105.38 64.03 103 61.65 100.62 63.67 100.62 66.05 103 63.67 105.38 61.65 105.38"/><rect class="cls-15" x="59.62" y="97.89" width="4.76" height="4.4"/><polygon class="cls-16" points="59.62 97.89 62 100.27 64.38 97.89 64.38 99.91 62 102.29 59.62 99.91 59.62 97.89"/><rect class="cls-15" x="59.62" y="93.13" width="4.76" height="4.4"/><polygon class="cls-16" points="59.62 93.13 62 95.51 64.38 93.13 64.38 95.15 62 97.53 59.62 95.15 59.62 93.13"/><rect class="cls-15" x="59.62" y="88.37" width="4.76" height="4.4"/><polygon class="cls-16" points="59.62 88.37 62 90.75 64.38 88.37 64.38 90.39 62 92.77 59.62 90.39 59.62 88.37"/><rect class="cls-15" x="59.62" y="83.6" width="4.76" height="4.4"/><polygon class="cls-16" points="59.62 83.61 62 85.98 64.38 83.61 64.38 85.62 62 88 59.62 85.62 59.62 83.61"/><rect class="cls-15" x="59.62" y="78.84" width="4.76" height="4.4"/><polygon class="cls-16" points="59.62 78.84 62 81.22 64.38 78.84 64.38 80.86 62 83.24 59.62 80.86 59.62 78.84"/><rect class="cls-15" x="59.62" y="74.08" width="4.76" height="4.4"/><polygon class="cls-16" points="59.62 74.08 62 76.46 64.38 74.08 64.38 76.1 62 78.48 59.62 76.1 59.62 74.08"/><rect class="cls-15" x="59.62" y="69.32" width="4.76" height="4.4"/><polygon class="cls-16" points="59.62 69.32 62 71.7 64.38 69.32 64.38 71.34 62 73.72 59.62 71.34 59.62 69.32"/><rect class="cls-15" x="59.62" y="64.56" width="4.76" height="4.4"/><polygon class="cls-16" points="59.62 64.56 62 66.94 64.38 64.56 64.38 66.58 62 68.96 59.62 66.58 59.62 64.56"/><rect class="cls-15" x="59.62" y="59.8" width="4.76" height="4.4"/><polygon class="cls-16" points="59.62 59.8 62 62.18 64.38 59.8 64.38 61.82 62 64.2 59.62 61.82 59.62 59.8"/><rect class="cls-15" x="349.15" y="272.62" width="4.4" height="4.76"/><polygon class="cls-17" points="349.15 277.38 351.53 275 349.15 272.62 351.17 272.62 353.55 275 351.17 277.38 349.15 277.38"/><rect class="cls-15" x="344.39" y="272.62" width="4.4" height="4.76"/><polygon class="cls-17" points="344.39 277.38 346.77 275 344.39 272.62 346.41 272.62 348.79 275 346.41 277.38 344.39 277.38"/><rect class="cls-15" x="339.63" y="272.62" width="4.4" height="4.76"/><polygon class="cls-17" points="339.63 277.38 342.01 275 339.63 272.62 341.65 272.62 344.03 275 341.65 277.38 339.63 277.38"/><rect class="cls-15" x="334.87" y="272.62" width="4.4" height="4.76"/><polygon class="cls-17" points="334.87 277.38 337.25 275 334.87 272.62 336.89 272.62 339.27 275 336.89 277.38 334.87 277.38"/><rect class="cls-15" x="330.11" y="272.62" width="4.4" height="4.76"/><polygon class="cls-17" points="330.11 277.38 332.49 275 330.11 272.62 332.13 272.62 334.5 275 332.13 277.38 330.11 277.38"/><rect class="cls-15" x="325.34" y="272.62" width="4.4" height="4.76"/><polygon class="cls-17" points="325.35 277.38 327.73 275 325.35 272.62 327.36 272.62 329.74 275 327.36 277.38 325.35 277.38"/><rect class="cls-15" x="320.58" y="272.62" width="4.4" height="4.76"/><polygon class="cls-17" points="320.58 277.38 322.96 275 320.58 272.62 322.6 272.62 324.98 275 322.6 277.38 320.58 277.38"/><rect class="cls-15" x="315.82" y="272.62" width="4.4" height="4.76"/><polygon class="cls-17" points="315.82 277.38 318.2 275 315.82 272.62 317.84 272.62 320.22 275 317.84 277.38 315.82 277.38"/><rect class="cls-15" x="311.06" y="272.62" width="4.4" height="4.76"/><polygon class="cls-17" points="311.06 277.38 313.44 275 311.06 272.62 313.08 272.62 315.46 275 313.08 277.38 311.06 277.38"/><rect class="cls-15" x="306.3" y="272.62" width="4.4" height="4.76"/><polygon class="cls-17" points="306.3 277.38 308.68 275 306.3 272.62 308.32 272.62 310.7 275 308.32 277.38 306.3 277.38"/><rect class="cls-15" x="301.54" y="272.62" width="4.4" height="4.76"/><polygon class="cls-17" points="301.54 277.38 303.92 275 301.54 272.62 303.56 272.62 305.94 275 303.56 277.38 301.54 277.38"/><rect class="cls-15" x="296.78" y="272.62" width="4.4" height="4.76"/><polygon class="cls-17" points="296.78 277.38 299.16 275 296.78 272.62 298.8 272.62 301.18 275 298.8 277.38 296.78 277.38"/><rect class="cls-15" x="292.02" y="272.62" width="4.4" height="4.76"/><polygon class="cls-17" points="292.02 277.38 294.4 275 292.02 272.62 294.04 272.62 296.42 275 294.04 277.38 292.02 277.38"/><rect class="cls-15" x="287.26" y="272.62" width="4.4" height="4.76"/><polygon class="cls-17" points="287.26 277.38 289.64 275 287.26 272.62 289.28 272.62 291.66 275 289.28 277.38 287.26 277.38"/><rect class="cls-15" x="282.5" y="272.62" width="4.4" height="4.76"/><polygon class="cls-17" points="282.5 277.38 284.88 275 282.5 272.62 284.52 272.62 286.9 275 284.52 277.38 282.5 277.38"/><rect class="cls-15" x="277.74" y="272.62" width="4.4" height="4.76"/><polygon class="cls-17" points="277.74 277.38 280.12 275 277.74 272.62 279.75 272.62 282.13 275 279.75 277.38 277.74 277.38"/><rect class="cls-15" x="272.97" y="272.62" width="4.4" height="4.76"/><polygon class="cls-17" points="272.98 277.38 275.36 275 272.98 272.62 274.99 272.62 277.37 275 274.99 277.38 272.98 277.38"/><rect class="cls-15" x="268.21" y="272.62" width="4.4" height="4.76"/><polygon class="cls-17" points="268.21 277.38 270.59 275 268.21 272.62 270.23 272.62 272.61 275 270.23 277.38 268.21 277.38"/><rect class="cls-15" x="263.45" y="272.62" width="4.4" height="4.76"/><polygon class="cls-17" points="263.45 277.38 265.83 275 263.45 272.62 265.47 272.62 267.85 275 265.47 277.38 263.45 277.38"/><rect class="cls-15" x="258.69" y="272.62" width="4.4" height="4.76"/><polygon class="cls-17" points="258.69 277.38 261.07 275 258.69 272.62 260.71 272.62 263.09 275 260.71 277.38 258.69 277.38"/><rect class="cls-15" x="253.93" y="272.62" width="4.4" height="4.76"/><polygon class="cls-17" points="253.93 277.38 256.31 275 253.93 272.62 255.95 272.62 258.33 275 255.95 277.38 253.93 277.38"/><rect class="cls-15" x="249.17" y="272.62" width="4.4" height="4.76"/><polygon class="cls-17" points="249.17 277.38 251.55 275 249.17 272.62 251.19 272.62 253.57 275 251.19 277.38 249.17 277.38"/><rect class="cls-15" x="244.41" y="272.62" width="4.4" height="4.76"/><polygon class="cls-17" points="244.41 277.38 246.79 275 244.41 272.62 246.43 272.62 248.81 275 246.43 277.38 244.41 277.38"/><rect class="cls-15" x="239.65" y="272.62" width="4.4" height="4.76"/><polygon class="cls-17" points="239.65 277.38 242.03 275 239.65 272.62 241.67 272.62 244.05 275 241.67 277.38 239.65 277.38"/><rect class="cls-15" x="234.89" y="272.62" width="4.4" height="4.76"/><polygon class="cls-17" points="234.89 277.38 237.27 275 234.89 272.62 236.91 272.62 239.29 275 236.91 277.38 234.89 277.38"/><rect class="cls-15" x="230.13" y="272.62" width="4.4" height="4.76"/><polygon class="cls-17" points="230.13 277.38 232.51 275 230.13 272.62 232.15 272.62 234.53 275 232.15 277.38 230.13 277.38"/><rect class="cls-15" x="226.62" y="271.37" width="4.76" height="4.4"/><polygon class="cls-17" points="226.62 271.37 229 273.75 231.38 271.37 231.38 273.38 229 275.77 226.62 273.38 226.62 271.37"/><rect class="cls-15" x="226.62" y="266.6" width="4.76" height="4.4"/><polygon class="cls-17" points="226.62 266.61 229 268.99 231.38 266.61 231.38 268.62 229 271 226.62 268.62 226.62 266.61"/><rect class="cls-15" x="226.62" y="261.84" width="4.76" height="4.4"/><polygon class="cls-17" points="226.62 261.84 229 264.22 231.38 261.84 231.38 263.86 229 266.24 226.62 263.86 226.62 261.84"/><rect class="cls-15" x="226.62" y="257.08" width="4.76" height="4.4"/><polygon class="cls-17" points="226.62 257.08 229 259.46 231.38 257.08 231.38 259.1 229 261.48 226.62 259.1 226.62 257.08"/><rect class="cls-15" x="226.62" y="252.32" width="4.76" height="4.4"/><polygon class="cls-17" points="226.62 252.32 229 254.7 231.38 252.32 231.38 254.34 229 256.72 226.62 254.34 226.62 252.32"/><rect class="cls-15" x="226.62" y="247.56" width="4.76" height="4.4"/><polygon class="cls-17" points="226.62 247.56 229 249.94 231.38 247.56 231.38 249.58 229 251.96 226.62 249.58 226.62 247.56"/><rect class="cls-15" x="226.62" y="242.8" width="4.76" height="4.4"/><polygon class="cls-17" points="226.62 242.8 229 245.18 231.38 242.8 231.38 244.82 229 247.2 226.62 244.82 226.62 242.8"/><rect class="cls-15" x="77.69" y="272.62" width="4.4" height="4.76"/><polygon class="cls-17" points="82.09 272.62 79.71 275 82.09 277.38 80.07 277.38 77.69 275 80.07 272.62 82.09 272.62"/><rect class="cls-15" x="82.45" y="272.62" width="4.4" height="4.76"/><polygon class="cls-17" points="86.85 272.62 84.47 275 86.85 277.38 84.83 277.38 82.45 275 84.83 272.62 86.85 272.62"/><rect class="cls-15" x="87.21" y="272.62" width="4.4" height="4.76"/><polygon class="cls-17" points="91.61 272.62 89.23 275 91.61 277.38 89.59 277.38 87.21 275 89.59 272.62 91.61 272.62"/><rect class="cls-15" x="91.97" y="272.62" width="4.4" height="4.76"/><polygon class="cls-17" points="96.37 272.62 93.99 275 96.37 277.38 94.35 277.38 91.97 275 94.35 272.62 96.37 272.62"/><rect class="cls-15" x="96.73" y="272.62" width="4.4" height="4.76"/><polygon class="cls-17" points="101.13 272.62 98.75 275 101.13 277.38 99.11 277.38 96.73 275 99.11 272.62 101.13 272.62"/><rect class="cls-15" x="101.49" y="272.62" width="4.4" height="4.76"/><polygon class="cls-17" points="105.89 272.62 103.51 275 105.89 277.38 103.88 277.38 101.49 275 103.88 272.62 105.89 272.62"/><rect class="cls-15" x="106.26" y="272.62" width="4.4" height="4.76"/><polygon class="cls-17" points="110.66 272.62 108.28 275 110.66 277.38 108.64 277.38 106.25 275 108.64 272.62 110.66 272.62"/><rect class="cls-15" x="111.02" y="272.62" width="4.4" height="4.76"/><polygon class="cls-17" points="115.42 272.62 113.04 275 115.42 277.38 113.4 277.38 111.02 275 113.4 272.62 115.42 272.62"/><rect class="cls-15" x="115.78" y="272.62" width="4.4" height="4.76"/><polygon class="cls-17" points="120.18 272.62 117.8 275 120.18 277.38 118.16 277.38 115.78 275 118.16 272.62 120.18 272.62"/><rect class="cls-15" x="120.54" y="272.62" width="4.4" height="4.76"/><polygon class="cls-17" points="124.94 272.62 122.56 275 124.94 277.38 122.92 277.38 120.54 275 122.92 272.62 124.94 272.62"/><rect class="cls-15" x="125.3" y="272.62" width="4.4" height="4.76"/><polygon class="cls-17" points="129.7 272.62 127.32 275 129.7 277.38 127.68 277.38 125.3 275 127.68 272.62 129.7 272.62"/><rect class="cls-15" x="130.06" y="272.62" width="4.4" height="4.76"/><polygon class="cls-17" points="134.46 272.62 132.08 275 134.46 277.38 132.44 277.38 130.06 275 132.44 272.62 134.46 272.62"/><rect class="cls-15" x="134.82" y="272.62" width="4.4" height="4.76"/><polygon class="cls-17" points="139.22 272.62 136.84 275 139.22 277.38 137.2 277.38 134.82 275 137.2 272.62 139.22 272.62"/><rect class="cls-15" x="139.58" y="272.62" width="4.4" height="4.76"/><polygon class="cls-17" points="143.98 272.62 141.6 275 143.98 277.38 141.96 277.38 139.58 275 141.96 272.62 143.98 272.62"/><rect class="cls-15" x="144.34" y="272.62" width="4.4" height="4.76"/><polygon class="cls-17" points="148.74 272.62 146.36 275 148.74 277.38 146.72 277.38 144.34 275 146.72 272.62 148.74 272.62"/><rect class="cls-15" x="149.1" y="272.62" width="4.4" height="4.76"/><polygon class="cls-17" points="153.5 272.62 151.12 275 153.5 277.38 151.48 277.38 149.1 275 151.48 272.62 153.5 272.62"/><rect class="cls-15" x="153.86" y="272.62" width="4.4" height="4.76"/><polygon class="cls-17" points="158.26 272.62 155.88 275 158.26 277.38 156.25 277.38 153.86 275 156.25 272.62 158.26 272.62"/><rect class="cls-15" x="158.63" y="272.62" width="4.4" height="4.76"/><polygon class="cls-17" points="163.03 272.62 160.65 275 163.03 277.38 161.01 277.38 158.63 275 161.01 272.62 163.03 272.62"/><rect class="cls-15" x="163.39" y="272.62" width="4.4" height="4.76"/><polygon class="cls-17" points="167.79 272.62 165.41 275 167.79 277.38 165.77 277.38 163.39 275 165.77 272.62 167.79 272.62"/><rect class="cls-15" x="168.15" y="272.62" width="4.4" height="4.76"/><polygon class="cls-17" points="172.55 272.62 170.17 275 172.55 277.38 170.53 277.38 168.15 275 170.53 272.62 172.55 272.62"/><rect class="cls-15" x="172.91" y="272.62" width="4.4" height="4.76"/><polygon class="cls-17" points="177.31 272.62 174.93 275 177.31 277.38 175.29 277.38 172.91 275 175.29 272.62 177.31 272.62"/><rect class="cls-15" x="177.67" y="272.62" width="4.4" height="4.76"/><polygon class="cls-17" points="182.07 272.62 179.69 275 182.07 277.38 180.05 277.38 177.67 275 180.05 272.62 182.07 272.62"/><rect class="cls-15" x="182.43" y="272.62" width="4.4" height="4.76"/><polygon class="cls-17" points="186.83 272.62 184.45 275 186.83 277.38 184.81 277.38 182.43 275 184.81 272.62 186.83 272.62"/><rect class="cls-15" x="187.19" y="272.62" width="4.4" height="4.76"/><polygon class="cls-17" points="191.59 272.62 189.21 275 191.59 277.38 189.57 277.38 187.19 275 189.57 272.62 191.59 272.62"/><rect class="cls-15" x="191.95" y="272.62" width="4.4" height="4.76"/><polygon class="cls-17" points="196.35 272.62 193.97 275 196.35 277.38 194.33 277.38 191.95 275 194.33 272.62 196.35 272.62"/><rect class="cls-15" x="196.71" y="272.62" width="4.4" height="4.76"/><polygon class="cls-17" points="201.11 272.62 198.73 275 201.11 277.38 199.09 277.38 196.71 275 199.09 272.62 201.11 272.62"/><rect class="cls-15" x="201.47" y="272.62" width="4.4" height="4.76"/><polygon class="cls-17" points="205.87 272.62 203.49 275 205.87 277.38 203.85 277.38 201.47 275 203.85 272.62 205.87 272.62"/><rect class="cls-15" x="204.62" y="271.36" width="4.76" height="4.4"/><polygon class="cls-17" points="204.62 271.37 207 273.75 209.38 271.37 209.38 273.38 207 275.76 204.62 273.38 204.62 271.37"/><rect class="cls-15" x="204.62" y="266.6" width="4.76" height="4.4"/><polygon class="cls-17" points="204.62 266.6 207 268.98 209.38 266.6 209.38 268.62 207 271 204.62 268.62 204.62 266.6"/><rect class="cls-15" x="204.62" y="261.84" width="4.76" height="4.4"/><polygon class="cls-17" points="204.62 261.84 207 264.22 209.38 261.84 209.38 263.86 207 266.24 204.62 263.86 204.62 261.84"/><rect class="cls-15" x="204.62" y="257.08" width="4.76" height="4.4"/><polygon class="cls-17" points="204.62 257.08 207 259.46 209.38 257.08 209.38 259.1 207 261.48 204.62 259.1 204.62 257.08"/><rect class="cls-15" x="204.62" y="252.32" width="4.76" height="4.4"/><polygon class="cls-17" points="204.62 252.32 207 254.7 209.38 252.32 209.38 254.34 207 256.72 204.62 254.34 204.62 252.32"/><rect class="cls-15" x="204.62" y="247.56" width="4.76" height="4.4"/><polygon class="cls-17" points="204.62 247.56 207 249.94 209.38 247.56 209.38 249.58 207 251.96 204.62 249.58 204.62 247.56"/><rect class="cls-15" x="204.62" y="242.8" width="4.76" height="4.4"/><polygon class="cls-17" points="204.62 242.8 207 245.18 209.38 242.8 209.38 244.82 207 247.2 204.62 244.82 204.62 242.8"/><rect class="cls-15" x="215.62" y="304.69" width="4.76" height="4.4"/><polygon class="cls-17" points="215.62 304.69 218 307.07 220.38 304.69 220.38 306.71 218 309.09 215.62 306.71 215.62 304.69"/><rect class="cls-15" x="215.62" y="299.93" width="4.76" height="4.4"/><polygon class="cls-17" points="215.62 299.93 218 302.31 220.38 299.93 220.38 301.95 218 304.33 215.62 301.95 215.62 299.93"/><rect class="cls-15" x="215.62" y="295.17" width="4.76" height="4.4"/><polygon class="cls-17" points="215.62 295.17 218 297.55 220.38 295.17 220.38 297.19 218 299.57 215.62 297.19 215.62 295.17"/><rect class="cls-15" x="215.62" y="290.41" width="4.76" height="4.4"/><polygon class="cls-17" points="215.62 290.41 218 292.79 220.38 290.41 220.38 292.43 218 294.81 215.62 292.43 215.62 290.41"/><rect class="cls-15" x="215.62" y="285.65" width="4.76" height="4.4"/><polygon class="cls-17" points="215.62 285.65 218 288.03 220.38 285.65 220.38 287.67 218 290.05 215.62 287.67 215.62 285.65"/><rect class="cls-15" x="215.62" y="280.89" width="4.76" height="4.4"/><polygon class="cls-17" points="215.62 280.89 218 283.27 220.38 280.89 220.38 282.91 218 285.29 215.62 282.91 215.62 280.89"/><rect class="cls-15" x="215.62" y="276.13" width="4.76" height="4.4"/><polygon class="cls-17" points="215.62 276.13 218 278.51 220.38 276.13 220.38 278.14 218 280.52 215.62 278.14 215.62 276.13"/><rect class="cls-15" x="215.62" y="271.36" width="4.76" height="4.4"/><polygon class="cls-17" points="215.62 271.37 218 273.75 220.38 271.37 220.38 273.38 218 275.76 215.62 273.38 215.62 271.37"/><rect class="cls-15" x="215.62" y="266.6" width="4.76" height="4.4"/><polygon class="cls-17" points="215.62 266.6 218 268.98 220.38 266.6 220.38 268.62 218 271 215.62 268.62 215.62 266.6"/><rect class="cls-15" x="215.62" y="261.84" width="4.76" height="4.4"/><polygon class="cls-17" points="215.62 261.84 218 264.22 220.38 261.84 220.38 263.86 218 266.24 215.62 263.86 215.62 261.84"/><rect class="cls-15" x="215.62" y="257.08" width="4.76" height="4.4"/><polygon class="cls-17" points="215.62 257.08 218 259.46 220.38 257.08 220.38 259.1 218 261.48 215.62 259.1 215.62 257.08"/><rect class="cls-15" x="215.62" y="252.32" width="4.76" height="4.4"/><polygon class="cls-17" points="215.62 252.32 218 254.7 220.38 252.32 220.38 254.34 218 256.72 215.62 254.34 215.62 252.32"/><rect class="cls-15" x="215.62" y="247.56" width="4.76" height="4.4"/><polygon class="cls-17" points="215.62 247.56 218 249.94 220.38 247.56 220.38 249.58 218 251.96 215.62 249.58 215.62 247.56"/><rect class="cls-15" x="215.62" y="242.8" width="4.76" height="4.4"/><polygon class="cls-17" points="215.62 242.8 218 245.18 220.38 242.8 220.38 244.82 218 247.2 215.62 244.82 215.62 242.8"/><rect class="cls-15" x="370.62" y="139.31" width="4.76" height="4.4"/><polygon class="cls-18" points="370.62 139.31 373 141.69 375.38 139.31 375.38 141.32 373 143.71 370.62 141.32 370.62 139.31"/><rect class="cls-15" x="370.62" y="134.55" width="4.76" height="4.4"/><polygon class="cls-18" points="370.62 134.54 373 136.93 375.38 134.54 375.38 136.56 373 138.94 370.62 136.56 370.62 134.54"/><rect class="cls-15" x="370.62" y="129.78" width="4.76" height="4.4"/><polygon class="cls-18" points="370.62 129.78 373 132.16 375.38 129.78 375.38 131.8 373 134.18 370.62 131.8 370.62 129.78"/><rect class="cls-15" x="370.62" y="125.02" width="4.76" height="4.4"/><polygon class="cls-18" points="370.62 125.02 373 127.4 375.38 125.02 375.38 127.04 373 129.42 370.62 127.04 370.62 125.02"/><rect class="cls-15" x="370.62" y="120.26" width="4.76" height="4.4"/><polygon class="cls-18" points="370.62 120.26 373 122.64 375.38 120.26 375.38 122.28 373 124.66 370.62 122.28 370.62 120.26"/><rect class="cls-15" x="370.62" y="115.5" width="4.76" height="4.4"/><polygon class="cls-18" points="370.62 115.5 373 117.88 375.38 115.5 375.38 117.52 373 119.9 370.62 117.52 370.62 115.5"/><rect class="cls-15" x="370.62" y="110.74" width="4.76" height="4.4"/><polygon class="cls-18" points="370.62 110.74 373 113.12 375.38 110.74 375.38 112.76 373 115.14 370.62 112.76 370.62 110.74"/><rect class="cls-15" x="370.62" y="105.98" width="4.76" height="4.4"/><polygon class="cls-18" points="370.62 105.98 373 108.36 375.38 105.98 375.38 108 373 110.38 370.62 108 370.62 105.98"/><rect class="cls-15" x="370.62" y="101.22" width="4.76" height="4.4"/><polygon class="cls-18" points="370.62 101.22 373 103.6 375.38 101.22 375.38 103.24 373 105.62 370.62 103.24 370.62 101.22"/><rect class="cls-15" x="366.46" y="100.62" width="4.4" height="4.76"/><polygon class="cls-18" points="366.45 105.38 368.84 103 366.45 100.62 368.47 100.62 370.86 103 368.47 105.38 366.45 105.38"/><rect class="cls-15" x="361.69" y="100.62" width="4.4" height="4.76"/><polygon class="cls-18" points="361.69 105.38 364.07 103 361.69 100.62 363.71 100.62 366.09 103 363.71 105.38 361.69 105.38"/><rect class="cls-15" x="356.93" y="100.62" width="4.4" height="4.76"/><polygon class="cls-18" points="356.93 105.38 359.31 103 356.93 100.62 358.95 100.62 361.33 103 358.95 105.38 356.93 105.38"/><rect class="cls-15" x="352.17" y="100.62" width="4.4" height="4.76"/><polygon class="cls-18" points="352.17 105.38 354.55 103 352.17 100.62 354.19 100.62 356.57 103 354.19 105.38 352.17 105.38"/><rect class="cls-15" x="347.41" y="100.62" width="4.4" height="4.76"/><polygon class="cls-18" points="347.41 105.38 349.79 103 347.41 100.62 349.43 100.62 351.81 103 349.43 105.38 347.41 105.38"/><rect class="cls-15" x="342.65" y="100.62" width="4.4" height="4.76"/><polygon class="cls-18" points="342.65 105.38 345.03 103 342.65 100.62 344.67 100.62 347.05 103 344.67 105.38 342.65 105.38"/><rect class="cls-15" x="337.89" y="100.62" width="4.4" height="4.76"/><polygon class="cls-18" points="337.89 105.38 340.27 103 337.89 100.62 339.91 100.62 342.29 103 339.91 105.38 337.89 105.38"/><rect class="cls-15" x="333.13" y="100.62" width="4.4" height="4.76"/><polygon class="cls-18" points="333.13 105.38 335.51 103 333.13 100.62 335.15 100.62 337.53 103 335.15 105.38 333.13 105.38"/><rect class="cls-15" x="328.37" y="100.62" width="4.4" height="4.76"/><polygon class="cls-18" points="328.37 105.38 330.75 103 328.37 100.62 330.39 100.62 332.77 103 330.39 105.38 328.37 105.38"/><rect class="cls-15" x="323.61" y="100.62" width="4.4" height="4.76"/><polygon class="cls-18" points="323.61 105.38 325.99 103 323.61 100.62 325.63 100.62 328.01 103 325.63 105.38 323.61 105.38"/><rect class="cls-15" x="318.85" y="100.62" width="4.4" height="4.76"/><polygon class="cls-18" points="318.85 105.38 321.23 103 318.85 100.62 320.87 100.62 323.25 103 320.87 105.38 318.85 105.38"/><rect class="cls-15" x="314.09" y="100.62" width="4.4" height="4.76"/><polygon class="cls-18" points="314.08 105.38 316.47 103 314.08 100.62 316.11 100.62 318.49 103 316.11 105.38 314.08 105.38"/><rect class="cls-15" x="309.32" y="100.62" width="4.4" height="4.76"/><polygon class="cls-18" points="309.32 105.38 311.7 103 309.32 100.62 311.34 100.62 313.72 103 311.34 105.38 309.32 105.38"/><rect class="cls-15" x="304.56" y="100.62" width="4.4" height="4.76"/><polygon class="cls-18" points="304.56 105.38 306.94 103 304.56 100.62 306.58 100.62 308.96 103 306.58 105.38 304.56 105.38"/><rect class="cls-15" x="299.8" y="100.62" width="4.4" height="4.76"/><polygon class="cls-18" points="299.8 105.38 302.18 103 299.8 100.62 301.82 100.62 304.2 103 301.82 105.38 299.8 105.38"/><path class="cls-19" d="M300,64.52H140.7V28a4,4,0,0,1,4-4H296a4,4,0,0,1,4,4Z"/><path class="cls-20" d="M300,64.52H140.7v175a4,4,0,0,0,4,4H296a4,4,0,0,0,4-4Z"/><path class="cls-1" d="M212.93,35.57h0l-2.19-1.27h0l-3.95,2.28-2.63-1.52,3.95-2.28-2.19-1.27L202,33.8l-2.63-1.52L203.28,30l-2.19-1.27L197.15,31l-3.95-2.28L191,30l19.73,11.39h0V52.53l2.19-1.27V35.57Zm-2.19,3.29-1.75-1,1.75-1Z"/><polygon class="cls-1" points="205.91 55.32 208.1 54.05 208.1 42.91 205.91 44.18 205.91 55.32"/><path class="cls-1" d="M203.28,45.7h0L183.55,34.31h0l-2.19,1.27V47.46h0v3.81l2.19,1.27V41.39h0l3.95-2.28,2.63,1.52-.88.51h0l-3.07,1.77h0V54.05l2.19,1.27V44.18h0l3.95-2.28L195,43.42l-.88.51h0L191,45.7h0V56.84l2.19,1.27,3.07-1.77h0l.88-.51,3.94,2.28h0l2.19-1.27h0Zm-.28.16L201.09,47v3l-6.58-3.8,2.63-1.52L201.09,47Zm-19.45-7v-2l1.76,1Zm9.65,14.68,1.75,1-1.75,1Zm0-2.53V48l7.89,4.56v3Z"/><polygon class="cls-1" points="186.18 32.79 205.91 44.18 208.1 42.91 188.38 31.52 186.18 32.79"/><g id="linkerd"><g class="cls-21"><path class="cls-1" d="M222.09,49.23c-1.25,0-1.75-.6-1.75-1.83V40.26a.13.13,0,0,1,.13-.13h1.22a.13.13,0,0,1,.13.13v7.06c0,.44.17.58.56.58h.29a.13.13,0,0,1,.13.13V49.1a.13.13,0,0,1-.13.13Z"/><path class="cls-1" d="M224.36,41.55a.13.13,0,0,1-.13-.13V40.26a.13.13,0,0,1,.13-.13h1.22a.13.13,0,0,1,.13.13v1.15a.13.13,0,0,1-.13.13Zm0,7.6a.13.13,0,0,1-.13-.13V42.89a.13.13,0,0,1,.13-.13h1.22a.13.13,0,0,1,.13.13V49a.13.13,0,0,1-.13.13Z"/><path class="cls-1" d="M231.7,49.15a.13.13,0,0,1-.13-.13V45.33c0-.82-.41-1.39-1.21-1.39a1.23,1.23,0,0,0-1.22,1.39V49a.13.13,0,0,1-.13.13h-1.22a.13.13,0,0,1-.13-.13V42.89a.13.13,0,0,1,.13-.13H229a.13.13,0,0,1,.13.13v.46h0a2,2,0,0,1,1.68-.74A2.18,2.18,0,0,1,233,45v4a.13.13,0,0,1-.13.13Z"/><path class="cls-1" d="M239.1,49.15a.23.23,0,0,1-.21-.13l-1.62-2.68-.86,1V49a.13.13,0,0,1-.13.13h-1.22a.13.13,0,0,1-.13-.13V40.26a.13.13,0,0,1,.13-.13h1.22a.13.13,0,0,1,.13.13v5.2l2.19-2.57a.3.3,0,0,1,.25-.13h1.35a.07.07,0,0,1,.05.13l-2,2.33L240.56,49a.08.08,0,0,1-.07.13Z"/><path class="cls-1" d="M241.53,47.52A5,5,0,0,1,241.3,46a5.09,5.09,0,0,1,.21-1.58,2.83,2.83,0,0,1,5.24,0A5.73,5.73,0,0,1,247,46.3a.13.13,0,0,1-.15.13h-3.94a.07.07,0,0,0-.08.08A1.49,1.49,0,0,0,244.33,48a1.93,1.93,0,0,0,1.5-.61.14.14,0,0,1,.2,0l.78.69a.12.12,0,0,1,0,.19,3.37,3.37,0,0,1-2.63,1.09A2.59,2.59,0,0,1,241.53,47.52Zm3.86-2.83a1.37,1.37,0,0,0-2.51,0,1.62,1.62,0,0,0-.08.54.07.07,0,0,0,.08.08h2.51a.07.07,0,0,0,.08-.08A1.62,1.62,0,0,0,245.39,44.69Z"/><path class="cls-1" d="M248.69,49.15a.13.13,0,0,1-.13-.13V42.89a.13.13,0,0,1,.13-.13h1.22a.13.13,0,0,1,.13.13v.54h0a1.83,1.83,0,0,1,1.66-.82,1.93,1.93,0,0,1,1.34.53c.07.07.08.12,0,.19l-.7.89a.12.12,0,0,1-.19,0,1.73,1.73,0,0,0-.94-.31c-.84,0-1.21.6-1.21,1.62V49a.13.13,0,0,1-.13.13Z"/><path class="cls-1" d="M258,49.15a.13.13,0,0,1-.13-.13v-.48h0a1.93,1.93,0,0,1-1.7.76,2.15,2.15,0,0,1-2.22-1.54,5.33,5.33,0,0,1-.23-1.8,5.33,5.33,0,0,1,.23-1.8,2.15,2.15,0,0,1,2.22-1.54,1.93,1.93,0,0,1,1.7.76h0v-3.1a.13.13,0,0,1,.13-.13h1.22a.13.13,0,0,1,.13.13V49a.13.13,0,0,1-.13.13Zm-.27-2a5.44,5.44,0,0,0,0-2.39,1.27,1.27,0,0,0-2.37,0,5.44,5.44,0,0,0,0,2.39,1.27,1.27,0,0,0,2.37,0Z"/></g></g><line class="cls-22" x1="295" y1="104" x2="146" y2="104"/><line class="cls-22" x1="295" y1="136.5" x2="146" y2="136.5"/><line class="cls-22" x1="295" y1="169" x2="146" y2="169"/><line class="cls-22" x1="295" y1="206.5" x2="146" y2="206.5"/><circle class="cls-23" cx="50.42" cy="271.86" r="12" transform="translate(-168.89 103.47) rotate(-41.98)"/><rect class="cls-24" x="65.81" y="281.19" width="4" height="20" transform="translate(-177.35 120.06) rotate(-41.98)"/><circle class="cls-25" cx="50.42" cy="271.86" r="8" transform="translate(-168.89 103.47) rotate(-41.98)"/><circle class="cls-26" cx="50.42" cy="271.86" r="12" transform="translate(-168.89 103.47) rotate(-41.98)"/><circle class="cls-26" cx="50.42" cy="271.86" r="8" transform="translate(-168.89 103.47) rotate(-41.98)"/><rect class="cls-26" x="65.81" y="281.19" width="4" height="20" transform="translate(-177.35 120.06) rotate(-41.98)"/><line class="cls-26" x1="61.12" y1="283.75" x2="58.44" y2="280.78"/><line class="cls-26" x1="62.31" y1="288.06" x2="65.28" y2="285.39"/><line class="cls-26" x1="70.33" y1="296.98" x2="73.31" y2="294.31"/><path class="cls-27" d="M47.44,274.53a4,4,0,0,1,.3-5.65"/><text class="cls-8" transform="translate(167.64 389.01)">Routing policy</text><circle class="cls-5" cx="213.63" cy="342.06" r="20.12"/><circle class="cls-28" cx="213.63" cy="342.06" r="20.12"/><path class="cls-28" d="M190.43,345.53a23.47,23.47,0,0,1,19.74-26.68"/><path class="cls-28" d="M211.56,350.11A53.77,53.77,0,0,0,212,322"/><path class="cls-28" d="M209.07,357a53.74,53.74,0,0,0,2.48-6.89"/><path class="cls-28" d="M220.45,361a54.13,54.13,0,0,1-5.14-5.57"/><path class="cls-28" d="M204.1,329.53a53.34,53.34,0,0,0,7.45,20.58"/><path class="cls-28" d="M215.31,355.41a54.06,54.06,0,0,1-3.75-5.31"/><path class="cls-28" d="M233.69,340.66a53.87,53.87,0,0,0-18.39,14.75"/><path class="cls-28" d="M210.81,362a53.84,53.84,0,0,1,4.49-6.56"/><circle class="cls-29" cx="227.04" cy="344.57" r="1.68"/><circle class="cls-29" cx="213.63" cy="331.89" r="1.68"/><circle class="cls-29" cx="206.95" cy="342.06" r="1.68"/><circle class="cls-28" cx="227.04" cy="344.57" r="1.68"/><circle class="cls-28" cx="213.63" cy="331.89" r="1.68"/><circle class="cls-28" cx="206.95" cy="342.06" r="1.68"/><polyline class="cls-28" points="202.34 331.62 204.11 329.23 206.5 331.01"/><path class="cls-28" d="M236.86,338.6a23.47,23.47,0,0,1-19.74,26.68"/><polyline class="cls-28" points="219.14 367.1 216.78 365.3 218.59 362.93"/><polyline class="cls-28" points="208.05 317.04 210.41 318.85 208.6 321.21"/><polyline class="cls-28" points="211.56 355.9 208.93 357.3 207.53 354.68"/></g></g></svg>